<?xml version="1.0" standalone="no"?>
<!DOCTYPE svg PUBLIC "-//W3C//DTD SVG 20010904//EN"
 "http://www.w3.org/TR/2001/REC-SVG-20010904/DTD/svg10.dtd">
<svg version="1.0" xmlns="http://www.w3.org/2000/svg"
 width="700.000000pt" height="700.000000pt" viewBox="0 0 700.000000 700.000000"
 preserveAspectRatio="xMidYMid meet">
<metadata>
Created by potrace 1.14, written by Peter Selinger 2001-2017
</metadata>
<g transform="translate(0.000000,700.000000) scale(0.100000,-0.100000)"
fill="#000000" stroke="none">
<path d="M2532 6020 c18 -47 113 -283 133 -330 13 -30 36 -86 50 -125 15 -38
33 -83 41 -100 7 -16 22 -52 32 -80 21 -56 367 -913 387 -960 7 -16 22 -55 34
-85 12 -30 26 -64 31 -75 5 -11 46 -112 91 -225 45 -113 99 -248 120 -300 26
-67 34 -97 26 -101 -7 -4 -39 -10 -72 -13 -33 -4 -67 -9 -75 -11 -8 -2 -35 -6
-60 -9 -86 -10 -135 -17 -185 -26 -27 -5 -70 -12 -95 -15 -25 -3 -61 -7 -80
-10 -19 -3 -53 -8 -75 -10 -22 -3 -51 -7 -65 -10 -14 -3 -45 -7 -70 -10 -46
-5 -240 -32 -295 -41 -73 -12 -154 -23 -210 -29 -16 -2 -43 -6 -60 -9 -16 -3
-52 -8 -80 -11 -27 -4 -57 -8 -65 -10 -8 -2 -42 -7 -75 -11 -33 -3 -62 -7 -65
-9 -3 -2 -34 -6 -70 -10 -36 -4 -74 -9 -85 -11 -11 -2 -40 -6 -65 -9 -25 -3
-56 -8 -70 -10 -14 -3 -41 -7 -60 -10 -19 -2 -53 -7 -75 -10 -22 -4 -51 -8
-65 -10 -14 -1 -43 -5 -65 -8 -56 -9 -125 -19 -155 -22 -33 -4 -110 -15 -135
-20 -11 -2 -31 -4 -44 -4 -29 -1 -22 -11 11 -16 30 -4 124 -24 228 -49 14 -4
38 -9 53 -11 16 -3 66 -14 111 -25 45 -10 93 -21 106 -24 14 -2 59 -12 100
-21 71 -16 179 -40 228 -50 12 -3 34 -7 50 -10 15 -3 35 -8 44 -11 9 -3 25 -7
36 -9 18 -3 197 -42 232 -50 8 -2 48 -11 89 -19 90 -20 92 -21 81 -49 -5 -12
-39 -116 -75 -232 -36 -115 -82 -259 -102 -320 -19 -60 -36 -114 -38 -120 -1
-5 -5 -17 -8 -25 -9 -25 -69 -214 -72 -230 -2 -8 -28 -91 -59 -185 -49 -152
-78 -256 -59 -215 3 8 19 28 35 45 15 16 28 33 28 37 0 4 6 13 13 20 14 13 89
109 291 368 177 227 424 542 454 579 15 19 55 71 90 115 34 45 68 88 75 96 7
8 35 44 62 80 27 36 55 72 62 80 7 8 49 62 95 120 45 58 87 110 93 117 5 7 71
91 145 187 74 96 138 174 142 173 4 -1 89 -105 188 -232 99 -126 186 -237 193
-245 7 -8 34 -44 62 -80 27 -36 76 -99 110 -141 33 -42 72 -91 87 -110 316
-405 481 -617 491 -629 7 -8 61 -78 122 -155 60 -77 114 -145 120 -151 5 -7
19 -24 30 -40 11 -15 49 -64 85 -109 36 -45 75 -95 87 -111 l22 -29 -8 30
c-11 39 -115 369 -146 460 -22 67 -78 244 -80 255 -1 7 -97 306 -151 472 -24
75 -44 140 -44 145 0 8 201 59 265 67 11 2 29 6 40 9 11 3 31 8 45 11 14 2 66
13 115 25 50 11 101 22 115 25 14 3 34 7 45 10 30 7 216 47 245 52 14 3 43 10
65 16 42 11 61 15 110 24 17 2 86 18 155 34 69 16 138 31 154 34 16 3 30 7 33
10 4 3 -52 13 -117 21 -29 4 -125 17 -144 21 -10 2 -44 6 -75 10 -31 3 -63 7
-71 9 -17 3 -76 12 -135 20 -22 3 -51 7 -65 10 -14 2 -47 6 -75 10 -82 11 -95
13 -205 29 -58 8 -125 18 -150 21 -25 3 -56 7 -70 10 -14 3 -41 7 -60 9 -19 2
-102 14 -185 25 -82 12 -168 24 -190 26 -22 3 -52 8 -67 11 -27 5 -57 9 -143
19 -27 3 -72 10 -100 15 -27 5 -72 12 -100 15 -80 10 -117 15 -144 20 -14 2
-48 7 -76 11 -27 3 -57 8 -65 9 -9 2 -43 6 -75 10 -33 4 -69 9 -80 11 -11 3
-45 7 -75 11 -48 5 -80 10 -87 12 -1 1 7 22 18 49 11 26 24 56 28 67 5 11 14
34 21 50 7 17 34 86 62 155 27 69 55 139 62 155 7 17 35 84 61 150 26 66 53
134 60 150 7 17 41 100 75 185 34 85 68 169 75 185 7 17 30 73 51 125 45 116
311 777 323 805 5 11 21 52 36 90 15 39 33 84 40 100 36 83 45 108 42 112 -2
2 -37 -33 -78 -78 -41 -45 -85 -94 -99 -109 -14 -15 -56 -61 -94 -103 -38 -43
-83 -92 -100 -110 -17 -18 -71 -77 -121 -131 -49 -55 -111 -122 -137 -150 -26
-28 -55 -61 -65 -72 -10 -12 -58 -65 -108 -118 -49 -54 -102 -113 -118 -132
-27 -31 -57 -45 -57 -26 0 4 -26 34 -58 68 -31 33 -93 100 -137 148 -44 49
-89 98 -100 110 -11 12 -54 60 -95 106 -41 45 -82 90 -91 99 -8 9 -44 48 -80
86 -163 179 -250 274 -290 319 -80 88 -103 111 -97 96z"/>
</g>
</svg>
