<?xml version="1.0" standalone="no"?>
<!DOCTYPE svg PUBLIC "-//W3C//DTD SVG 20010904//EN"
 "http://www.w3.org/TR/2001/REC-SVG-20010904/DTD/svg10.dtd">
<svg version="1.0" xmlns="http://www.w3.org/2000/svg"
 width="700.000000pt" height="700.000000pt" viewBox="0 0 700.000000 700.000000"
 preserveAspectRatio="xMidYMid meet">
<metadata>
Created by potrace 1.11, written by Peter Selinger 2001-2013
</metadata>
<g transform="translate(0.000000,700.000000) scale(0.100000,-0.100000)"
fill="#000000" stroke="none">
<path d="M4497 6454 c-1 -1 -54 -4 -117 -8 -127 -7 -150 -10 -295 -32 -844
-132 -1443 -564 -1665 -1199 l-31 -91 -102 -77 c-197 -148 -352 -300 -478
-472 -189 -257 -328 -601 -384 -950 -4 -22 -8 -130 -10 -240 -4 -246 15 -408
73 -605 9 -30 16 -57 17 -60 10 -57 109 -288 173 -405 36 -66 139 -226 173
-269 5 -6 30 -38 55 -71 26 -33 70 -82 97 -110 138 -141 228 -360 215 -525 -3
-31 0 -50 6 -50 29 0 193 152 279 258 117 143 193 297 239 482 6 26 12 151 13
293 l3 247 -122 0 c-66 1 -249 2 -406 3 l-285 2 -1 448 -1 447 418 0 419 0 0
435 c0 341 3 435 13 436 60 4 867 0 873 -4 5 -3 9 -199 8 -436 l-1 -431 409 0
408 0 0 -450 0 -450 -22 -1 c-13 0 -194 0 -403 0 -209 0 -387 -2 -395 -5 -13
-3 -15 -65 -15 -479 l0 -476 45 6 c80 11 115 16 130 20 8 2 35 7 60 10 24 4
47 8 51 10 3 2 20 7 38 10 38 7 208 60 266 84 22 9 87 40 145 68 58 29 106 53
107 53 5 0 15 -94 17 -156 5 -165 -35 -348 -119 -549 -22 -52 -92 -191 -116
-232 l-20 -31 43 13 c204 64 453 180 653 305 651 408 1001 981 1020 1665 6
226 -116 665 -271 978 -83 167 -177 302 -352 502 -10 11 -36 43 -57 70 -22 28
-43 52 -46 55 -11 10 -197 248 -290 370 -188 249 -294 417 -339 533 -108 277
-129 567 -69 925 10 63 19 119 19 125 0 9 -63 19 -73 11z"/>
</g>
</svg>
